<svg width="15" height="15" viewBox="0 0 15 15" fill="none" xmlns="http://www.w3.org/2000/svg">
<path d="M12.3545 6.4541L5.52246 13.2832L4.5293 12.29L4.63183 12.1875H3.28125C3.02343 12.1875 2.8125 11.9766 2.8125 11.7187V10.3682L2.71025 10.4707C2.57168 10.6113 2.47002 10.7812 2.41464 10.9687L1.7414 13.2598L4.03125 12.5859C4.19238 12.5303 4.38867 12.4277 4.5293 12.29L5.52246 13.2832C5.21777 13.5879 4.83984 13.8135 4.42676 13.9336L0.901459 14.9707C0.654779 15.0439 0.387884 14.9766 0.205951 14.7685C0.024011 14.6133 -0.0440106 14.3467 0.0285871 14.0977L1.06552 10.5732C1.1874 10.1602 1.41093 9.78222 1.71591 9.47753L8.5459 2.64667L12.3545 6.4541ZM14.4346 1.72119C15.167 2.45332 15.167 3.6416 14.4346 4.37402L13.0166 5.79199L9.20801 1.98398L10.626 0.566011C11.3584 -0.166352 12.5479 -0.166352 13.2803 0.566011L14.4346 1.72119Z" fill="white"/>
</svg>
